<?xml version="1.0" encoding="iso-8859-1"?>
<!-- Uploaded to: SVG Repo, www.svgrepo.com, Generator: SVG Repo Mixer Tools -->
<svg version="1.1" id="Layer_1" xmlns="http://www.w3.org/2000/svg" xmlns:xlink="http://www.w3.org/1999/xlink" 
	 viewBox="0 0 512 512" xml:space="preserve">
<path style="fill:#FFD248;" d="M355.265,52.245v297.796h-78.367h-41.796h-78.367V52.245c0-23.092,18.704-41.796,41.796-41.796
	h114.939C336.562,10.449,355.265,29.153,355.265,52.245z"/>
<rect x="235.102" y="350.041" style="fill:#E6E7E8;" width="41.796" height="151.51"/>
<g>
	<path style="fill:#231F20;" d="M313.469,0H198.531c-28.808,0-52.245,23.437-52.245,52.245v297.796
		c0,5.771,4.678,10.449,10.449,10.449h67.918v141.061c0,5.771,4.678,10.449,10.449,10.449h41.796
		c5.771,0,10.449-4.678,10.449-10.449V360.49h67.918c5.771,0,10.449-4.678,10.449-10.449V52.245C365.714,23.437,342.277,0,313.469,0
		z M266.449,491.102h-20.898V360.49h20.898V491.102z M344.816,339.592H167.184V52.245c0-17.285,14.062-31.347,31.347-31.347h114.939
		c17.285,0,31.347,14.062,31.347,31.347V339.592z"/>
	<rect x="193.306" y="83.592" style="fill:#231F20;" width="31.347" height="20.898"/>
	<rect x="245.551" y="47.02" style="fill:#231F20;" width="31.347" height="20.898"/>
	<rect x="287.347" y="109.714" style="fill:#231F20;" width="31.347" height="20.898"/>
	<rect x="203.755" y="141.061" style="fill:#231F20;" width="31.347" height="20.898"/>
	<rect x="266.449" y="172.408" style="fill:#231F20;" width="31.347" height="20.898"/>
	<rect x="182.857" y="203.755" style="fill:#231F20;" width="31.347" height="20.898"/>
	<rect x="297.796" y="235.102" style="fill:#231F20;" width="31.347" height="20.898"/>
	<rect x="203.755" y="256" style="fill:#231F20;" width="31.347" height="20.898"/>
	<rect x="256" y="287.347" style="fill:#231F20;" width="31.347" height="20.898"/>
</g>
</svg>