<?xml version="1.0" ?>
<!-- Uploaded to: SVG Repo, www.svgrepo.com, Generator: SVG Repo Mixer Tools -->
<svg width="800px" height="800px" viewBox="0 0 64 64" xmlns="http://www.w3.org/2000/svg">
<defs>
<style>.cls-1{fill:#f4784c;}.cls-2{fill:#f69370;}.cls-3{fill:#d16741;}.cls-4{fill:#f79d7d;}.cls-5{fill:#f9b097;}.cls-6{fill:#d4876b;}</style>
</defs>
<title/>
<g data-name="Layer 25" id="Layer_25">
<path class="cls-1" d="M26,32a69.056,69.056,0,0,1-6.06,28.38,6.334,6.334,0,0,1-10.98.82,5.953,5.953,0,0,1-.43-5.66c.08-.18.16-.36.23-.54A55.664,55.664,0,0,0,11,49c.21-.66.4-1.33.58-2a58.743,58.743,0,0,0,1.28-6c.11-.67.2-1.33.27-2a54.3,54.3,0,0,0,.42-6c.01-.33.01-.67.01-1s0-.67-.01-1a54.3,54.3,0,0,0-.42-6c-.07-.67-.16-1.33-.27-2a58.743,58.743,0,0,0-1.28-6c-.18-.67-.37-1.34-.58-2A55.664,55.664,0,0,0,8.76,9c-.07-.18-.15-.36-.23-.54A5.953,5.953,0,0,1,8.96,2.8a6.334,6.334,0,0,1,10.98.82A69.056,69.056,0,0,1,26,32Z"/>
<path class="cls-2" d="M19.94,3.62A6.253,6.253,0,0,0,14.21,0a6.358,6.358,0,0,0-.99.085A6.2,6.2,0,0,1,17.94,3.62,69.056,69.056,0,0,1,24,32a69.056,69.056,0,0,1-6.06,28.38,6.2,6.2,0,0,1-4.72,3.535,6.358,6.358,0,0,0,.99.085,6.253,6.253,0,0,0,5.73-3.62A69.056,69.056,0,0,0,26,32,69.056,69.056,0,0,0,19.94,3.62Z"/>
<path class="cls-3" d="M15,8a1,1,0,0,1-1,1H8.76c-.07-.18-.15-.36-.23-.54A5.847,5.847,0,0,1,8.09,7H14A1,1,0,0,1,15,8Z"/>
<path class="cls-3" d="M17,16a1,1,0,0,1-1,1H11.58c-.18-.67-.37-1.34-.58-2h5A1,1,0,0,1,17,16Z"/>
<path class="cls-3" d="M19,24a1,1,0,0,1-1,1H13.13c-.07-.67-.16-1.33-.27-2H18A1,1,0,0,1,19,24Z"/>
<path class="cls-3" d="M15,56a1,1,0,0,1-1,1H8.09a5.847,5.847,0,0,1,.44-1.46c.08-.18.16-.36.23-.54H14A1,1,0,0,1,15,56Z"/>
<path class="cls-3" d="M17,48a1,1,0,0,1-1,1H11c.21-.66.4-1.33.58-2H16A1,1,0,0,1,17,48Z"/>
<path class="cls-3" d="M19,40a1,1,0,0,1-1,1H12.86c.11-.67.2-1.33.27-2H18A1,1,0,0,1,19,40Z"/>
<path class="cls-3" d="M19,32a1,1,0,0,1-1,1H13.55c.01-.33.01-.67.01-1s0-.67-.01-1H18A1,1,0,0,1,19,32Z"/>
<path class="cls-4" d="M56,32a69.056,69.056,0,0,1-6.06,28.38,6.334,6.334,0,0,1-10.98.82,5.953,5.953,0,0,1-.43-5.66c.08-.18.16-.36.23-.54A55.664,55.664,0,0,0,41,49c.21-.66.4-1.33.58-2a58.743,58.743,0,0,0,1.28-6c.11-.67.2-1.33.27-2a54.3,54.3,0,0,0,.42-6c.01-.33.01-.67.01-1s0-.67-.01-1a54.3,54.3,0,0,0-.42-6c-.07-.67-.16-1.33-.27-2a58.743,58.743,0,0,0-1.28-6c-.18-.67-.37-1.34-.58-2a55.664,55.664,0,0,0-2.24-6c-.07-.18-.15-.36-.23-.54a5.953,5.953,0,0,1,.43-5.66,6.334,6.334,0,0,1,10.98.82A69.056,69.056,0,0,1,56,32Z"/>
<path class="cls-5" d="M49.938,3.62A6.253,6.253,0,0,0,44.208,0a6.371,6.371,0,0,0-.991.085A6.2,6.2,0,0,1,47.938,3.62,69.056,69.056,0,0,1,54,32a69.056,69.056,0,0,1-6.06,28.38,6.2,6.2,0,0,1-4.721,3.535,6.371,6.371,0,0,0,.991.085,6.253,6.253,0,0,0,5.73-3.62A69.056,69.056,0,0,0,56,32,69.056,69.056,0,0,0,49.938,3.62Z"/>
<path class="cls-6" d="M45,8a1,1,0,0,1-1,1h-5.24c-.07-.18-.15-.36-.23-.54A5.847,5.847,0,0,1,38.088,7H44A1,1,0,0,1,45,8Z"/>
<path class="cls-6" d="M47,16a1,1,0,0,1-1,1h-4.42c-.18-.67-.37-1.34-.58-2h5A1,1,0,0,1,47,16Z"/>
<path class="cls-6" d="M49,24a1,1,0,0,1-1,1h-4.87c-.07-.67-.16-1.33-.27-2H48A1,1,0,0,1,49,24Z"/>
<path class="cls-6" d="M45,56a1,1,0,0,1-1,1h-5.91a5.847,5.847,0,0,1,.44-1.46c.08-.18.16-.36.23-.54H44A1,1,0,0,1,45,56Z"/>
<path class="cls-6" d="M47,48a1,1,0,0,1-1,1H41c.21-.66.4-1.33.58-2H46A1,1,0,0,1,47,48Z"/>
<path class="cls-6" d="M49,40a1,1,0,0,1-1,1h-5.14c.11-.67.2-1.33.27-2H48A1,1,0,0,1,49,40Z"/>
<path class="cls-6" d="M49,32a1,1,0,0,1-1,1h-4.45c.01-.33.01-.67.01-1s0-.67-.01-1H48A1,1,0,0,1,49,32Z"/>
</g>
</svg>